<svg width="158" height="33" viewBox="0 0 158 33" xmlns="http://www.w3.org/2000/svg">
<path d="M30.8935 0.951933C31.2093 1.42789 31.2093 1.90385 31.0514 2.37981L19.0513 32.0481C18.8934 32.3654 18.7355 32.524 18.4197 32.6827C18.1039 32.8414 17.946 33 17.4723 33H13.6828C13.367 33 13.0512 32.8414 12.7354 32.6827C12.4196 32.524 12.2617 32.2067 12.1038 32.0481L0.103715 2.37981C-0.0541817 1.90385 -0.0541811 1.42789 0.261612 0.951933C0.577404 0.475971 1.05109 0.317315 1.52478 0.317315H16.0512C16.5249 0.317315 16.8407 0.475961 17.1565 0.793269C17.4723 1.11058 17.6302 1.42789 17.6302 1.90385V5.07693C17.6302 5.55289 17.4723 5.87019 17.1565 6.1875C16.8407 6.50481 16.5249 6.66347 16.0512 6.66347H8.78801L15.4197 23.4808L24.1039 1.26924C24.2618 0.951928 24.4197 0.793272 24.7355 0.634618C25.0513 0.475964 25.2092 0.317315 25.6829 0.317315H29.3145C29.6303 0.317315 29.7882 0.317312 30.104 0.475966C30.5777 0.63462 30.7356 0.793279 30.8935 0.951933ZM50.7884 1.26924L62.9464 30.3029C63.1043 30.4615 63.1043 30.7789 63.1043 31.0962C63.1043 31.5721 62.9464 31.8894 62.6306 32.2067C62.3148 32.524 61.9991 32.6827 61.5254 32.6827H57.8938C57.578 32.6827 57.2622 32.524 57.1043 32.3654C56.7885 32.2067 56.6306 32.0481 56.6306 31.7308L53.4727 24.274H41.1567L37.9988 31.7308C37.8409 32.0481 37.683 32.2067 37.5251 32.3654C37.2093 32.524 37.0514 32.6827 36.7356 32.6827H33.104C32.7882 32.6827 32.6303 32.6827 32.3146 32.524C32.1567 32.3654 31.8409 32.2067 31.8409 32.0481C31.683 31.8894 31.683 31.5721 31.5251 31.4135C31.5251 31.0962 31.5251 30.9375 31.683 30.6202L43.9989 1.42789C44.1568 1.11058 44.3147 0.951923 44.4726 0.793269C44.7884 0.634615 44.9463 0.475966 45.2621 0.475966H49.3674C49.6831 0.475966 49.9989 0.634615 50.1568 0.793269C50.3147 0.951923 50.7884 0.951928 50.7884 1.26924ZM47.3147 9.20193L43.841 17.9279H51.1042L47.3147 9.20193ZM87.5783 26.1779C88.0519 26.1779 88.3677 26.3365 88.6835 26.6538C88.9993 26.9712 89.1572 27.2885 89.1572 27.7644V30.9375C89.1572 31.4135 88.9993 31.7308 88.6835 32.0481C88.3677 32.3654 88.0519 32.524 87.5783 32.524H68.4728C67.9991 32.524 67.6833 32.3654 67.3675 32.0481C67.0517 31.7308 66.8938 31.4135 66.8938 30.9375V1.90385C66.8938 1.42789 67.0517 1.11058 67.3675 0.793269C67.6833 0.475961 67.9991 0.317315 68.4728 0.317315H71.7886C72.2623 0.317315 72.5781 0.475961 72.8939 0.793269C73.2097 1.11058 73.3676 1.42789 73.3676 1.90385V26.3365C73.3676 26.1779 87.5783 26.1779 87.5783 26.1779ZM112.842 1.42789C114.579 2.0625 116.157 3.17308 117.579 4.60096C120.579 7.77404 122.158 11.5817 122.158 16.5C122.158 21.2596 120.579 25.226 117.579 28.399C116.157 29.8269 114.579 30.9375 112.842 31.5721C110.947 32.3654 109.21 32.6827 107.157 32.6827H94.8415C94.3678 32.6827 94.052 32.524 93.7362 32.2067C93.4204 31.8894 93.2625 31.5721 93.2625 31.0962V27.9231C93.2625 27.4471 93.4204 27.1298 93.7362 26.8125C94.052 26.4952 94.3678 26.3365 94.8415 26.3365H106.999C109.526 26.3365 111.736 25.3846 113.315 23.4808C114.894 21.5769 115.684 19.1971 115.684 16.3413C115.684 13.4856 114.894 11.1058 113.315 9.20193C111.736 7.29808 109.526 6.34615 106.999 6.34615H94.8415C94.3678 6.34615 94.052 6.18751 93.7362 5.8702C93.4204 5.55289 93.2625 5.23558 93.2625 4.75961V1.58654C93.2625 1.11058 93.4204 0.793274 93.7362 0.475966C94.052 0.158659 94.3678 0 94.8415 0H107.157C109.052 0.317308 110.947 0.634618 112.842 1.42789ZM141.895 0.317315C146.631 0.317315 150.579 1.90385 153.579 5.07693C156.579 8.25001 158 12.0577 158 16.6587C158 21.2596 156.579 25.0673 153.579 28.2404C150.579 31.4135 146.631 33 141.895 33C137.158 33 133.21 31.4135 130.21 28.2404C127.21 25.0673 125.789 21.2596 125.789 16.6587C125.789 12.0577 127.21 8.25001 130.21 5.07693C133.21 1.90385 137.158 0.317315 141.895 0.317315ZM141.895 26.9711C144.895 26.9711 147.263 26.0192 149.158 24.1154C150.895 22.2115 151.842 19.8317 151.842 16.8173C151.842 13.8029 150.895 11.4231 149.158 9.51923C147.421 7.61538 144.895 6.66347 141.895 6.66347C138.895 6.66347 136.526 7.61538 134.631 9.51923C132.894 11.4231 131.947 13.8029 131.947 16.8173C131.947 19.8317 132.894 22.2115 134.631 24.1154C136.526 26.0192 138.895 26.9711 141.895 26.9711Z" fill="#673ab7"/>
</svg>
