<svg width="47" height="57" viewBox="0 0 47 57" fill="none" xmlns="http://www.w3.org/2000/svg">
<path fill-rule="evenodd" clip-rule="evenodd" d="M5.0231 42.9202C2.25268 42.933 0 40.6907 0 37.9202V17.8255C0 16.0919 0.898036 14.482 2.37314 13.5712L21.6013 1.69876C23.2755 0.665005 25.4004 0.709319 27.0301 1.81198L44.8019 13.8366C46.1765 14.7666 47 16.3181 47 17.9777V38C47 40.7614 44.7614 43 42 43H27.8375C25.6635 43 24.6039 40.3456 26.1804 38.8486C26.6276 38.4239 27.2208 38.1871 27.8375 38.1871H40.4521C41.5567 38.1871 42.4521 37.2917 42.4521 36.1871V20.1778C42.4521 18.4482 41.5582 16.8415 40.0886 15.9295L25.5129 6.8839C24.5555 6.28972 23.3458 6.28217 22.381 6.86435L6.96461 16.1672C5.46472 17.0723 4.5479 18.6963 4.5479 20.4482V36.1871C4.5479 37.2917 5.44334 38.1871 6.5479 38.1871H12.7221C13.3434 38.1871 13.9394 38.4333 14.3796 38.8717C15.86 40.3463 14.8224 42.8749 12.7329 42.8846L5.0231 42.9202Z" fill="#F15C30"/>
<path fill-rule="evenodd" clip-rule="evenodd" d="M15.0519 30.8586C13.8605 29.6577 14.7111 27.6156 16.4027 27.6156C16.896 27.6156 17.37 27.8072 17.7248 28.1499L19.9369 30.287C20.3256 30.6624 20.9421 30.6612 21.3293 30.2843L28.347 23.4524C28.7093 23.0997 29.1949 22.9023 29.7005 22.9023C31.4366 22.9023 32.2989 25.0079 31.0613 26.2256L22.764 34.3901C21.5865 35.5488 19.6937 35.5374 18.5302 34.3646L15.0519 30.8586Z" fill="#0F984A"/>
<path fill-rule="evenodd" clip-rule="evenodd" d="M39.7496 49.3824C40.1235 49.3824 40.458 49.4775 40.7531 49.6677C41.0483 49.8579 41.2811 50.1366 41.4516 50.5039C41.6222 50.8647 41.7074 51.2943 41.7074 51.7927C41.7074 52.3306 41.6058 52.7962 41.4024 53.1898C41.1991 53.5767 40.9138 53.8752 40.5465 54.0851C40.1792 54.2949 39.7529 54.3999 39.2675 54.3999C38.5067 54.3999 37.9033 54.1474 37.4573 53.6423C37.0178 53.1307 36.7981 52.3601 36.7981 51.3303C36.7981 50.5761 36.8604 49.9563 36.9851 49.4709C37.1097 48.9855 37.3261 48.5887 37.6344 48.2805C37.9426 47.9656 38.3722 47.7197 38.9232 47.5426C39.3167 47.418 39.6283 47.3065 39.8578 47.2081C39.9529 47.1658 40.0517 47.1183 40.1542 47.0654C40.4223 46.9271 40.7571 47.0132 40.9044 47.2765C41.0409 47.5207 40.9666 47.8314 40.7199 47.9633C40.6216 48.0159 40.5212 48.0659 40.4186 48.1132C40.1628 48.2247 39.8513 48.3362 39.484 48.4477C39.1888 48.5461 38.9527 48.6609 38.7756 48.7921C38.6051 48.9167 38.4674 49.0938 38.3624 49.3233C38.264 49.5463 38.1952 49.8513 38.1558 50.2383C38.5362 49.6677 39.0675 49.3824 39.7496 49.3824ZM39.2577 53.357C39.566 53.357 39.8086 53.2455 39.9857 53.0225C40.1628 52.793 40.2514 52.3994 40.2514 51.8419C40.2514 51.3172 40.1792 50.9499 40.0349 50.74C39.8906 50.5302 39.6709 50.4252 39.3758 50.4252C39.1528 50.4252 38.9396 50.4875 38.7363 50.6121C38.7148 50.625 38.6938 50.6386 38.6732 50.653C38.3178 50.9007 38.2542 51.3792 38.2542 51.8124C38.2542 52.324 38.3427 52.711 38.5198 52.9733C38.6969 53.2291 38.9429 53.357 39.2577 53.357ZM3.03019 47.205C3.45652 47.205 3.82709 47.2673 4.14192 47.392C4.29882 47.4508 4.45409 47.5259 4.60774 47.6173C4.87356 47.7755 4.90127 48.1355 4.69973 48.3702C4.50437 48.5977 4.16684 48.618 3.89781 48.4855C3.64253 48.3599 3.37956 48.2971 3.1089 48.2971C2.62354 48.2971 2.23657 48.4971 1.94798 48.8972C1.66595 49.2907 1.52493 49.9106 1.52493 50.7566C1.52493 51.5831 1.66595 52.1963 1.94798 52.5964C2.23657 52.9899 2.62682 53.1867 3.11874 53.1867C3.37453 53.1867 3.60737 53.1408 3.81726 53.049C3.88015 53.0195 3.94392 52.9865 4.00858 52.9499C4.28114 52.7959 4.63316 52.8317 4.82874 53.0762C5.00964 53.3023 4.99634 53.6331 4.75891 53.7988C4.60226 53.9082 4.42939 54.0059 4.2403 54.0918C3.88612 54.2492 3.49259 54.3279 3.05971 54.3279C2.44973 54.3279 1.91519 54.1902 1.45607 53.9147C0.996946 53.6393 0.639489 53.2359 0.383693 52.7046C0.127898 52.1668 0 51.5175 0 50.7566C0 50.0155 0.131177 49.3793 0.393531 48.848C0.655886 48.3102 1.01662 47.9035 1.47574 47.6281C1.93486 47.346 2.45301 47.205 3.03019 47.205ZM10.2892 51.491C10.2892 51.796 10.0227 52.0321 9.71772 52.0321H7.0032C7.04912 52.5044 7.17701 52.8389 7.3869 53.0356C7.59678 53.2324 7.88209 53.3308 8.24283 53.3308C8.46583 53.3308 8.67571 53.2947 8.87248 53.2225C8.94277 53.1968 9.01516 53.1656 9.08964 53.1289C9.33561 53.0078 9.64098 53.0531 9.8037 53.2738C9.96521 53.4928 9.92789 53.8046 9.69416 53.9439C9.21351 54.2304 8.6871 54.3736 8.11493 54.3736C7.29507 54.3736 6.66542 54.1277 6.22598 53.6358C5.78654 53.1438 5.56681 52.4781 5.56681 51.6386C5.56681 51.1073 5.65864 50.6318 5.84229 50.212C6.03249 49.7857 6.30469 49.4512 6.65886 49.2085C7.0196 48.9658 7.44593 48.8445 7.93784 48.8445C8.67899 48.8445 9.25617 49.0773 9.66938 49.543C10.0826 50.0087 10.2892 50.658 10.2892 51.491ZM7.96735 49.7988C7.67877 49.7988 7.45249 49.907 7.28851 50.1235C7.1311 50.3334 7.036 50.6777 7.0032 51.1565H8.84296C8.87556 51.1565 8.90199 51.1301 8.90199 51.0975C8.90199 50.2317 8.59045 49.7988 7.96735 49.7988ZM15.1844 49.5725C14.863 49.0872 14.3744 48.8445 13.7185 48.8445C13.4364 48.8445 13.1643 48.9068 12.9019 49.0314C12.6395 49.1561 12.41 49.3463 12.2132 49.6021L12.2092 49.5718C12.1665 49.2457 11.8886 49.0019 11.5598 49.0019C11.198 49.0019 10.9047 49.2952 10.9047 49.657V55.599C10.9047 56.0157 11.2673 56.3398 11.6815 56.2931C12.0347 56.2533 12.3018 55.9545 12.3018 55.599V53.8128C12.6297 54.1867 13.0626 54.3736 13.6004 54.3736C14.0267 54.3736 14.394 54.2556 14.7023 54.0194C15.0171 53.7768 15.2565 53.4455 15.4205 53.0258C15.5845 52.606 15.6665 52.1305 15.6665 51.5992C15.6665 50.7269 15.5058 50.0513 15.1844 49.5725ZM14.2104 51.6091C14.2104 52.7569 13.8693 53.3308 13.1872 53.3308C12.4889 53.3308 12.3018 52.4473 12.3018 51.7489V51.6536C12.3018 50.9359 12.4251 50.0156 13.1319 49.8916C13.1853 49.8822 13.2398 49.8775 13.2954 49.8775C13.5971 49.8775 13.8234 50.0087 13.9743 50.2711C14.1317 50.5334 14.2104 50.9794 14.2104 51.6091ZM19.3804 51.5682C20.2724 51.6666 20.7184 52.0864 20.7184 52.8275C20.7184 53.3654 20.5118 53.7655 20.0986 54.0278C19.6854 54.2902 19.1246 54.4213 18.4163 54.4213C17.2372 54.4213 16.2813 53.4655 16.2813 52.2864V51.2585C16.2813 50.1009 17.1013 49.0496 18.2588 49.0496C18.9475 49.0496 19.4886 49.171 19.8822 49.4137C20.2757 49.6498 20.4725 50.0007 20.4725 50.4664C20.4725 50.7615 20.3806 51.0042 20.197 51.1944C20.0133 51.378 19.7411 51.5027 19.3804 51.5682ZM18.2392 49.9744C18.0752 49.9744 17.8883 49.9843 17.6784 50.004V51.2633H18.3375C18.836 51.2633 19.0853 51.0468 19.0853 50.6139C19.0853 50.3975 19.0131 50.2368 18.8688 50.1319C18.7311 50.0269 18.5212 49.9744 18.2392 49.9744ZM18.3769 53.4769C18.9738 53.4769 19.2722 53.2276 19.2722 52.7292C19.2722 52.4996 19.2033 52.3291 19.0656 52.2176C18.9278 52.1061 18.7016 52.0503 18.3867 52.0503H17.6784V53.4769H18.3769ZM25.3471 54.3638C25.7284 54.3638 26.0375 54.0547 26.0375 53.6733V50.0062C26.0375 49.4881 25.6175 49.068 25.0993 49.068C24.7408 49.068 24.4136 49.2724 24.2563 49.5946L22.6108 52.9649C22.6585 52.7851 22.7028 52.5219 22.7437 52.1756C22.7847 51.8225 22.8051 51.4628 22.8051 51.0964V49.7687C22.8051 49.3817 22.4914 49.068 22.1044 49.068C21.7174 49.068 21.4037 49.3817 21.4037 49.7687V53.4239C21.4037 53.943 21.8245 54.3638 22.3436 54.3638C22.7014 54.3638 23.0281 54.1607 23.1864 53.8399L24.8509 50.4669C24.7964 50.6534 24.7487 50.9166 24.7077 51.2563C24.6736 51.596 24.6566 51.9624 24.6566 52.3554V53.6733C24.6566 54.0547 24.9657 54.3638 25.3471 54.3638ZM29.1146 48.8445C29.4622 48.8445 29.7738 48.897 30.0492 49.0019C30.1871 49.05 30.3211 49.1122 30.4511 49.1885C30.6888 49.328 30.7199 49.6451 30.5563 49.8669C30.3805 50.105 30.0478 50.1377 29.7723 50.0295C29.7596 50.0246 29.747 50.0198 29.7344 50.0153C29.577 49.9562 29.4032 49.9267 29.213 49.9267C28.4718 49.9267 28.1013 50.4973 28.1013 51.6386C28.1013 52.2158 28.1964 52.629 28.3866 52.8782C28.5768 53.1274 28.849 53.2521 29.2031 53.2521C29.3868 53.2521 29.554 53.2258 29.7049 53.1734C29.7229 53.1663 29.7413 53.1587 29.76 53.1507C30.039 53.0306 30.3737 53.0855 30.5473 53.3347C30.7159 53.5767 30.6724 53.9146 30.4135 54.0558C30.0247 54.2677 29.5983 54.3736 29.1343 54.3736C28.6227 54.3736 28.1767 54.2621 27.7963 54.0391C27.4224 53.8161 27.1338 53.5013 26.9305 53.0946C26.7272 52.6814 26.6255 52.1994 26.6255 51.6484C26.6255 51.0975 26.7272 50.6121 26.9305 50.1924C27.1338 49.766 27.4224 49.4348 27.7963 49.1987C28.1767 48.9626 28.6161 48.8445 29.1146 48.8445ZM35.6121 52.0321C35.9171 52.0321 36.1835 51.796 36.1835 51.491C36.1835 50.658 35.9769 50.0087 35.5637 49.543C35.1505 49.0773 34.5733 48.8445 33.8322 48.8445C33.3403 48.8445 32.914 48.9658 32.5532 49.2085C32.199 49.4512 31.9269 49.7857 31.7366 50.212C31.553 50.6318 31.4612 51.1073 31.4612 51.6386C31.4612 52.4781 31.6809 53.1438 32.1203 53.6358C32.5598 54.1277 33.1894 54.3736 34.0093 54.3736C34.5815 54.3736 35.1079 54.2304 35.5885 53.9439C35.8223 53.8046 35.8596 53.4928 35.6981 53.2738C35.5353 53.0531 35.23 53.0078 34.984 53.1289C34.9095 53.1656 34.8371 53.1968 34.7668 53.2225C34.5701 53.2947 34.3602 53.3308 34.1372 53.3308C33.7765 53.3308 33.4911 53.2324 33.2813 53.0356C33.0714 52.8389 32.9435 52.5044 32.8976 52.0321H35.6121ZM33.1829 50.1235C33.3468 49.907 33.5731 49.7988 33.8617 49.7988C34.4848 49.7988 34.7963 50.2317 34.7963 51.0975C34.7963 51.1301 34.7699 51.1565 34.7373 51.1565H32.8976C32.9304 50.6777 33.0255 50.3334 33.1829 50.1235ZM46.3097 54.3638C46.691 54.3638 47.0002 54.0547 47.0002 53.6733V50.0062C47.0002 49.4881 46.5801 49.068 46.062 49.068C45.7034 49.068 45.3763 49.2724 45.2189 49.5946L43.5734 52.9649C43.6211 52.7851 43.6655 52.5219 43.7064 52.1756C43.7473 51.8225 43.7678 51.4628 43.7678 51.0964V49.7687C43.7678 49.3817 43.4541 49.068 43.0671 49.068C42.6801 49.068 42.3664 49.3817 42.3664 49.7687V53.4239C42.3664 53.943 42.7872 54.3638 43.3062 54.3638C43.664 54.3638 43.9907 54.1607 44.1491 53.8399L45.8136 50.4669C45.759 50.6534 45.7113 50.9166 45.6704 51.2563C45.6363 51.596 45.6192 51.9624 45.6192 52.3554V53.6733C45.6192 54.0547 45.9284 54.3638 46.3097 54.3638Z" fill="#22252B"/>
</svg>
