<svg width="180" height="180" viewBox="0 0 180 180" fill="none" xmlns="http://www.w3.org/2000/svg">
<g clip-path="url(#clip0)">
<path fill-rule="evenodd" clip-rule="evenodd" d="M28.5655 138.935C19.4291 138.977 12 131.614 12 122.517V56.5327C12 50.84 14.9616 45.5536 19.8263 42.5628L83.2383 3.57781C88.7598 0.183306 95.7674 0.328816 101.142 3.94958L159.751 43.4344C164.284 46.4883 167 51.5828 167 57.0325V122.779C167 131.846 159.617 139.197 150.511 139.197H103.804C96.6348 139.197 93.1405 130.481 98.3395 125.565C99.8143 124.171 101.771 123.393 103.804 123.393H145.406C149.049 123.393 152.002 120.453 152.002 116.826V64.2569C152.002 58.5775 149.054 53.3014 144.207 50.3066L96.1383 20.604C92.9808 18.653 88.9915 18.6282 85.8098 20.5399L34.9684 51.0873C30.022 54.0593 26.9984 59.3921 26.9984 65.1445V116.826C26.9984 120.453 29.9514 123.393 33.5942 123.393H53.9558C56.0048 123.393 57.9703 124.202 59.422 125.641C64.3044 130.483 60.8825 138.786 53.9916 138.818L28.5655 138.935Z" fill="#F15C30"/>
<path fill-rule="evenodd" clip-rule="evenodd" d="M61.6396 99.3293C57.7106 95.386 60.5158 88.6805 66.0944 88.6805C67.7212 88.6805 69.2844 89.3095 70.4544 90.4349L77.7498 97.4524C79.0315 98.6851 81.0648 98.6812 82.3417 97.4436L105.485 75.0097C106.68 73.8516 108.281 73.2036 109.949 73.2036C115.674 73.2036 118.518 80.1177 114.437 84.1162L87.0732 110.925C83.1898 114.73 76.9477 114.693 73.1106 110.842L61.6396 99.3293Z" fill="#0F984A"/>
<path d="M54.171 167.447C53.9461 166.514 53.5512 165.804 52.9864 165.315C52.365 164.778 51.5993 164.509 50.6892 164.509C49.6215 164.509 48.7464 164.871 48.0638 165.593C48.3963 164.834 48.9695 164.232 49.7834 163.787C50.5973 163.342 51.8356 163.027 53.4983 162.842C55.4177 162.631 56.9422 162.279 58.0716 161.786C58.7898 161.473 58.9976 160.6 58.6535 159.887C58.2682 159.088 57.3204 158.735 56.4769 158.972C55.465 159.256 54.1309 159.536 52.4744 159.813C50.3741 160.165 48.7464 160.777 47.5912 161.647C46.4361 162.518 45.6397 163.62 45.2021 164.954C44.7646 166.288 44.5458 167.937 44.5458 169.9C44.5458 171.623 44.6946 173.133 44.9921 174.43C45.1999 175.336 45.459 176.214 45.7693 177.066C46.0126 177.734 46.6527 178.154 47.353 178.154C48.5842 178.154 49.4292 176.901 49.091 175.697C48.9839 175.316 48.8909 174.949 48.812 174.597C48.5757 173.541 48.4576 172.411 48.4576 171.206C48.4576 169.947 48.637 169.03 48.9958 168.455C49.3546 167.881 49.8928 167.594 50.6104 167.594C51.1355 167.594 51.5687 167.784 51.91 168.164C52.2512 168.543 52.4219 169.159 52.4219 170.012V172.436C52.4219 173.46 53.2388 174.291 54.2465 174.291C55.2542 174.291 56.0712 173.46 56.0712 172.436V170.012C56.0712 168.4 56.675 167.594 57.8827 167.594C59.3004 167.594 60.0092 168.807 60.0092 171.234C60.0092 172.42 59.8911 173.531 59.6548 174.569C59.5735 174.926 59.4771 175.302 59.3658 175.696C59.0247 176.903 59.8765 178.154 61.1119 178.154C61.8142 178.154 62.456 177.735 62.7133 177.07C63.0287 176.256 63.2868 175.468 63.4878 174.708C63.7766 173.615 63.921 172.383 63.921 171.012C63.921 168.826 63.4309 167.196 62.4508 166.121C61.4706 165.047 60.158 164.509 58.5127 164.509C57.3576 164.509 56.4168 164.778 55.6905 165.315C54.9645 165.852 54.4784 166.658 54.2333 167.732L54.2324 167.731L54.171 167.447Z" fill="#22252B"/>
<path d="M21.5385 177.782C20.5949 178.328 19.4831 178.601 18.2031 178.601C16.1846 178.601 14.6462 178.018 13.5877 176.851C12.5292 175.684 12 174.053 12 171.96V160.739C12 159.723 12.81 158.899 13.8092 158.899C14.8085 158.899 15.6185 159.723 15.6185 160.739V171.821C15.6185 174.303 16.48 175.545 18.2031 175.545C19.0072 175.545 19.6185 175.244 20.037 174.642C20.4554 174.039 20.6647 173.22 20.6647 172.182C20.6647 171.423 20.5785 170.784 20.4062 170.265C20.2339 169.746 19.9754 169.153 19.6308 168.486C19.2698 167.708 18.999 167.041 18.8185 166.486C18.7904 166.399 18.7645 166.309 18.7407 166.215C18.4893 165.222 19.3652 164.374 20.3736 164.374H20.7443C21.5232 164.374 22.1177 165.025 22.4001 165.763C22.556 166.171 22.798 166.708 23.1262 167.375C23.5529 168.209 23.8811 168.968 24.1109 169.654C24.3406 170.339 24.4555 171.182 24.4555 172.182C24.4555 173.423 24.2052 174.53 23.7047 175.503C23.2042 176.476 22.4821 177.235 21.5385 177.782Z" fill="#22252B"/>
<path d="M37.8788 177.813C36.9419 178.339 35.8115 178.601 34.4877 178.601C33.2156 178.601 32.111 178.343 31.174 177.827C30.2371 177.311 29.5193 176.604 29.0208 175.707C28.5222 174.81 28.2729 173.81 28.2729 172.704C28.2729 172.068 28.3639 171.438 28.5459 170.813C28.7958 169.956 29.7326 169.583 30.5722 169.85C31.5861 170.173 32.1171 171.326 32.0917 172.406C32.0902 172.469 32.0895 172.532 32.0895 172.596C32.0895 173.502 32.2872 174.231 32.6826 174.783C33.078 175.336 33.6797 175.612 34.4877 175.612C36.121 175.612 36.9376 174.579 36.9376 172.514V164.525C36.9376 163.673 36.7442 163.021 36.3574 162.568C35.9705 162.115 35.4161 161.889 34.694 161.889C33.972 161.889 33.4262 162.092 33.0565 162.5C32.6869 162.908 32.5021 163.438 32.5021 164.09C32.5021 164.987 32.0001 165.901 31.1344 166.075L30.6985 166.163C29.8504 166.334 28.9597 165.897 28.7898 165.035C28.7203 164.682 28.6855 164.331 28.6855 163.981C28.6855 163.003 28.9391 162.129 29.4462 161.359C29.9534 160.589 30.6626 159.986 31.5737 159.552C32.4849 159.117 33.525 158.899 34.694 158.899C35.8631 158.899 36.9075 159.13 37.8273 159.592C38.747 160.054 39.4605 160.72 39.9676 161.59C40.4748 162.459 40.7284 163.474 40.7284 164.633V172.514C40.7284 173.692 40.4877 174.738 40.0063 175.653C39.525 176.568 38.8158 177.288 37.8788 177.813Z" fill="#22252B"/>
<path d="M77.2638 177.813C76.316 178.339 75.1879 178.601 73.8794 178.601C72.5878 178.601 71.4806 178.348 70.558 177.84C69.6353 177.333 68.935 176.654 68.4569 175.802C67.9788 174.951 67.7398 174.009 67.7398 172.976C67.7398 172.455 67.7996 171.95 67.9193 171.461C68.1257 170.617 69.0343 170.246 69.8539 170.493L69.9696 170.528C70.9009 170.809 71.4135 171.852 71.4135 172.84C71.4135 173.674 71.6148 174.344 72.0174 174.851C72.42 175.358 73.0407 175.612 73.8794 175.612C74.6846 175.612 75.2927 175.336 75.7037 174.783C76.1147 174.231 76.3202 173.502 76.3202 172.596C76.3202 171.599 76.1063 170.834 75.6786 170.299C75.2508 169.765 74.6091 169.498 73.7536 169.498C73.2651 169.498 72.8925 169.053 72.9696 168.563L73.1921 167.148C73.2402 166.842 73.4995 166.617 73.8039 166.617C74.4917 166.617 75.0243 166.413 75.4018 166.006C75.7792 165.598 75.9679 165.005 75.9679 164.226C75.9679 163.483 75.7834 162.899 75.4143 162.473C75.0453 162.047 74.5253 161.834 73.8543 161.834C73.1497 161.834 72.6087 162.029 72.2313 162.419C71.8538 162.808 71.6651 163.347 71.6651 164.036C71.6651 164.636 71.3567 165.226 70.7785 165.35L69.9145 165.536C69.0441 165.722 68.1198 165.263 68.0061 164.365C67.9795 164.156 67.9662 163.946 67.9662 163.737C67.9662 162.831 68.2095 162.011 68.6959 161.277C69.1824 160.544 69.8702 159.964 70.7593 159.538C71.6484 159.112 72.68 158.899 73.8543 158.899C75.0285 158.899 76.0602 159.126 76.9493 159.579C77.8383 160.032 78.5261 160.643 79.0126 161.413C79.4991 162.183 79.7423 163.03 79.7423 163.954C79.7423 165.005 79.4655 165.883 78.9119 166.59C78.3584 167.297 77.528 167.786 76.4209 168.057C77.6287 168.275 78.5597 168.787 79.2139 169.593C79.8681 170.399 80.1952 171.445 80.1952 172.732C80.1952 173.819 79.9436 174.806 79.4404 175.694C78.9371 176.581 78.2116 177.288 77.2638 177.813Z" fill="#22252B"/>
<path d="M88.9574 176.113C88.7559 175.307 88.5876 174.495 88.4525 173.676C88.1769 172.006 88.0392 170.086 88.0392 167.916C88.0392 165.745 88.2658 164.21 88.7191 163.31C89.1725 162.41 89.9146 161.96 90.9457 161.96C91.959 161.96 92.6923 162.434 93.1456 163.38C93.5989 164.326 93.8256 165.829 93.8256 167.888C93.8256 170.058 93.6923 171.983 93.4256 173.662C93.2945 174.487 93.1312 175.305 92.9356 176.115C92.6371 177.351 93.521 178.601 94.7727 178.601C95.5213 178.601 96.201 178.14 96.4405 177.419C97.3816 174.584 97.8521 171.379 97.8521 167.804C97.8521 164.762 97.2432 162.517 96.0255 161.07C94.8078 159.623 93.1145 158.899 90.9457 158.899C86.3237 158.899 84.0127 161.868 84.0127 167.804C84.0127 170.086 84.186 172.085 84.5326 173.801C84.7873 175.062 85.0972 176.26 85.4622 177.396C85.6973 178.127 86.3799 178.601 87.1363 178.601C88.3869 178.601 89.2656 177.345 88.9574 176.113Z" fill="#22252B"/>
<path d="M112.268 177.782C111.219 178.328 109.984 178.601 108.562 178.601C106.319 178.601 104.61 178.018 103.434 176.851C102.258 175.684 101.669 174.053 101.669 171.96V160.944C101.669 159.815 102.57 158.899 103.68 158.899C104.79 158.899 105.69 159.815 105.69 160.944V171.821C105.69 174.303 106.647 175.545 108.562 175.545C109.455 175.545 110.135 175.244 110.599 174.642C111.064 174.039 111.297 173.22 111.297 172.182C111.297 171.423 111.201 170.784 111.01 170.265C110.818 169.746 110.531 169.153 110.148 168.486C109.747 167.708 109.446 167.041 109.246 166.486L109.235 166.456L109.226 166.431L109.22 166.412C108.856 165.333 109.855 164.374 110.977 164.374H111.534C112.317 164.374 112.914 165.032 113.225 165.763C113.398 166.171 113.667 166.708 114.032 167.375C114.506 168.209 114.871 168.968 115.126 169.654C115.381 170.339 115.509 171.182 115.509 172.182C115.509 173.423 115.231 174.53 114.675 175.503C114.119 176.476 113.316 177.235 112.268 177.782Z" fill="#22252B"/>
<path d="M125.541 178.601C126.865 178.601 127.995 178.339 128.932 177.813C129.869 177.288 130.578 176.568 131.06 175.653C131.541 174.738 131.782 173.692 131.782 172.514V164.633C131.782 163.474 131.528 162.459 131.021 161.59C130.514 160.72 129.8 160.054 128.881 159.592C127.961 159.13 126.917 158.899 125.747 158.899C124.578 158.899 123.538 159.117 122.627 159.552C121.716 159.986 121.007 160.589 120.5 161.359C119.992 162.129 119.739 163.003 119.739 163.981C119.739 164.331 119.774 164.682 119.843 165.035C120.013 165.897 120.904 166.334 121.752 166.163L122.188 166.075C123.054 165.901 123.556 164.987 123.556 164.09C123.556 163.438 123.74 162.908 124.11 162.5C124.48 162.092 125.025 161.889 125.747 161.889C126.47 161.889 127.024 162.115 127.411 162.568C127.798 163.021 127.991 163.673 127.991 164.525V172.514C127.991 174.579 127.174 175.612 125.541 175.612C124.733 175.612 124.131 175.336 123.736 174.783C123.341 174.231 123.143 173.502 123.143 172.596C123.143 172.532 123.144 172.469 123.145 172.406C123.171 171.326 122.64 170.173 121.626 169.85C120.786 169.583 119.849 169.956 119.599 170.813C119.417 171.438 119.326 172.068 119.326 172.704C119.326 173.81 119.576 174.81 120.074 175.707C120.573 176.604 121.29 177.311 122.227 177.827C123.164 178.343 124.269 178.601 125.541 178.601Z" fill="#22252B"/>
<path fill-rule="evenodd" clip-rule="evenodd" d="M142.484 178.601C143.945 178.601 145.188 178.296 146.213 177.684C147.239 177.073 148.017 176.216 148.547 175.114C149.078 174.012 149.343 172.738 149.343 171.293C149.343 169.422 148.913 167.852 148.052 166.583C147.191 165.314 145.97 164.494 144.388 164.124C144.614 163.698 144.727 163.271 144.727 162.845C144.727 162.29 144.623 161.831 144.414 161.47C144.205 161.109 143.91 160.724 143.527 160.317C143.266 160.057 143.067 159.821 142.927 159.608C142.698 159.257 142.384 158.899 141.984 158.899H140.498C139.679 158.899 138.897 159.685 139.315 160.442C139.515 160.803 139.807 161.169 140.189 161.539C140.485 161.836 140.702 162.095 140.841 162.317C140.98 162.54 141.05 162.827 141.05 163.179C141.05 163.732 140.624 164.111 140.127 164.255C138.799 164.637 137.751 165.363 136.981 166.43C136.06 167.708 135.599 169.311 135.599 171.237C135.599 173.516 136.195 175.313 137.386 176.628C138.577 177.944 140.276 178.601 142.484 178.601ZM142.506 175.318C139.938 175.318 138.654 173.95 138.654 171.213C138.654 168.477 139.938 167.109 142.506 167.109C143.848 167.109 144.814 167.455 145.404 168.148C145.994 168.841 146.289 169.871 146.289 171.239C146.289 173.958 145.028 175.318 142.506 175.318Z" fill="#22252B"/>
<path d="M157.6 173.676C157.736 174.495 157.904 175.307 158.105 176.113C158.414 177.345 157.535 178.601 156.284 178.601C155.528 178.601 154.845 178.127 154.61 177.396C154.245 176.26 153.935 175.062 153.681 173.801C153.334 172.085 153.161 170.086 153.161 167.804C153.161 161.868 155.472 158.899 160.094 158.899C162.262 158.899 163.956 159.623 165.173 161.07C166.391 162.517 167 164.762 167 167.804C167 171.379 166.529 174.584 165.588 177.419C165.349 178.14 164.669 178.601 163.921 178.601C162.669 178.601 161.785 177.351 162.084 176.115C162.279 175.305 162.442 174.487 162.574 173.662C162.84 171.983 162.973 170.058 162.973 167.888C162.973 165.829 162.747 164.326 162.294 163.38C161.84 162.434 161.107 161.96 160.094 161.96C159.063 161.96 158.32 162.41 157.867 163.31C157.414 164.21 157.187 165.745 157.187 167.916C157.187 170.086 157.325 172.006 157.6 173.676Z" fill="#22252B"/>
</g>
<defs>
<clipPath id="clip0">
<rect width="180" height="180" fill="white"/>
</clipPath>
</defs>
</svg>
