<svg width="47" height="59" viewBox="0 0 47 59" fill="none" xmlns="http://www.w3.org/2000/svg">
<path d="M16 17V17C13.7736 15.6694 10.8925 16.3537 9.50222 18.5433L9.29291 18.873C8.96347 19.3919 8.72883 19.9651 8.59994 20.5661L3.33516 45.1125C2.1334 50.7156 6.40452 55.9999 12.135 55.9999L34.9317 56C40.6406 56 44.9069 50.7532 43.7426 45.1644L38.5 20L38.4145 19.5156C37.802 16.0446 33.5981 14.6184 31 17V17" stroke="black" stroke-width="5" stroke-linecap="round" stroke-linejoin="round"/>
<path d="M15 16H32" stroke="black" stroke-width="5" stroke-linecap="round" stroke-linejoin="round"/>
<path d="M29.4483 35.6306C28.6712 34.7901 27.3763 34.7901 26.5992 35.6306L23.5 38.9822L20.4008 35.6303C19.6237 34.7899 18.3288 34.7899 17.5517 35.6303C16.8161 36.4259 16.8161 37.6857 17.5517 38.4813L22.0688 43.3665C22.3143 43.6321 22.6193 43.8203 22.9523 43.9186C23.6477 44.1282 24.4112 43.9289 24.9283 43.3697L29.4483 38.4815C30.1839 37.686 30.1839 36.4262 29.4483 35.6306Z" fill="#F15C30"/>
<path d="M31 21V10.5C31 6.35786 27.6421 3 23.5 3V3C19.3579 3 16 6.35787 16 10.5V21" stroke="black" stroke-width="5" stroke-linecap="round" stroke-linejoin="round"/>
</svg>